<svg width="165" height="172" viewBox="0 0 165 172" fill="none" xmlns="http://www.w3.org/2000/svg">
<path fill-rule="evenodd" clip-rule="evenodd" d="M82.0264 171.877C36.6501 171.877 0 134.409 0 88.0197V62.8039C0 28.1903 27.5748 0 61.4325 0C95.2903 0 122.865 28.1903 122.865 62.8039V87.6629C122.865 99.4386 132.289 108.716 143.459 108.716C154.629 108.716 163.704 99.7955 164.053 88.3765C163.704 134.409 127.054 171.877 82.0264 171.877ZM43.7457 64.7193C43.7902 57.3632 37.8828 51.3694 30.6873 51.3694C23.4919 51.3694 17.6288 57.3632 17.6288 64.7193V83.4273C17.6288 90.8288 23.5363 96.7772 30.6873 96.7772C37.8384 96.7772 43.7457 90.7833 43.7457 83.4273V64.7193ZM82.0261 64.7193C82.0706 57.3632 76.1632 51.3694 68.9677 51.3694C61.7723 51.3694 55.9093 57.3632 55.9093 64.7193V83.4273C55.9093 90.8288 61.8167 96.7772 68.9677 96.7772C76.1188 96.7772 82.0261 90.7833 82.0261 83.4273V64.7193ZM64.6809 115.018L40.193 121.14C42.5738 129.303 48.9039 142.082 57.0284 130.833C60.7873 125.628 61.3301 124.15 62.0931 122.072C62.2547 121.632 62.4262 121.165 62.6402 120.63C62.8049 120.218 62.9446 119.872 63.0671 119.569C63.7038 117.992 63.877 117.564 64.6809 115.018Z" fill="white"/>
</svg>
