<svg width="30" height="37" viewBox="0 0 30 37" fill="none" xmlns="http://www.w3.org/2000/svg">
<path d="M10 6.24943C10.0005 5.37162 9.76988 4.50916 9.33135 3.74875C8.89282 2.98834 8.26183 2.35678 7.50181 1.91756C6.7418 1.47834 5.87954 1.24695 5.00174 1.24664C4.12394 1.24634 3.26153 1.47713 2.50121 1.91582C1.74089 2.35451 1.10946 2.98563 0.670398 3.74574C0.231338 4.50585 0.000124536 5.36815 2.27956e-06 6.24595C-0.000119976 7.12375 0.230853 7.98611 0.669701 8.74634C1.10855 9.50657 1.7398 10.1379 2.5 10.5768V26.9221C1.54679 27.4724 0.801813 28.3219 0.380604 29.3388C-0.0406044 30.3557 -0.114502 31.4831 0.170373 32.5463C0.455247 33.6095 1.08297 34.5489 1.95619 35.219C2.82942 35.889 3.89933 36.2522 5 36.2522C6.10067 36.2522 7.17059 35.889 8.04381 35.219C8.91703 34.5489 9.54476 33.6095 9.82963 32.5463C10.1145 31.4831 10.0406 30.3557 9.6194 29.3388C9.19819 28.3219 8.45321 27.4724 7.5 26.9221V10.5768C8.25969 10.1382 8.89062 9.50741 9.32943 8.74785C9.76825 7.98828 9.99951 7.12664 10 6.24943V6.24943ZM5 3.74943C5.49446 3.74943 5.9778 3.89605 6.38893 4.17075C6.80005 4.44546 7.12048 4.8359 7.3097 5.29272C7.49892 5.74953 7.54843 6.2522 7.45197 6.73715C7.3555 7.2221 7.1174 7.66756 6.76777 8.01719C6.41814 8.36682 5.97268 8.60493 5.48773 8.70139C5.00278 8.79785 4.50011 8.74834 4.04329 8.55913C3.58648 8.36991 3.19603 8.04947 2.92133 7.63835C2.64662 7.22723 2.5 6.74388 2.5 6.24943C2.5 5.58638 2.76339 4.9505 3.23223 4.48166C3.70108 4.01282 4.33696 3.74943 5 3.74943V3.74943ZM5 33.7494C4.50555 33.7494 4.0222 33.6028 3.61108 33.3281C3.19995 33.0534 2.87952 32.663 2.6903 32.2061C2.50108 31.7493 2.45158 31.2467 2.54804 30.7617C2.6445 30.2767 2.8826 29.8313 3.23223 29.4817C3.58187 29.132 4.02732 28.8939 4.51228 28.7975C4.99723 28.701 5.49989 28.7505 5.95671 28.9397C6.41353 29.1289 6.80397 29.4494 7.07868 29.8605C7.35338 30.2716 7.5 30.755 7.5 31.2494C7.5 31.9125 7.23661 32.5484 6.76777 33.0172C6.29893 33.486 5.66304 33.7494 5 33.7494Z" fill="#FF5D54"/>
<path d="M27.5 26.9221V10.9369C27.4979 9.03131 26.74 7.20434 25.3925 5.85687C24.0451 4.50941 22.2181 3.75149 20.3125 3.74942H18.75V1.24942C18.7499 1.00228 18.6765 0.760717 18.5392 0.555262C18.4018 0.349807 18.2066 0.189681 17.9783 0.0951187C17.7499 0.000556912 17.4987 -0.0241963 17.2563 0.0239873C17.0139 0.0721709 16.7912 0.191129 16.6164 0.365828L11.6164 5.36583C11.3822 5.60022 11.2506 5.91804 11.2506 6.24942C11.2506 6.5808 11.3822 6.89862 11.6164 7.13301L16.6164 12.133C16.7912 12.3077 17.0139 12.4267 17.2563 12.4749C17.4987 12.523 17.7499 12.4983 17.9783 12.4037C18.2066 12.3092 18.4018 12.149 18.5392 11.9436C18.6765 11.7381 18.7499 11.4966 18.75 11.2494V8.74942H20.3125C20.8927 8.74942 21.4491 8.97989 21.8593 9.39012C22.2695 9.80036 22.5 10.3568 22.5 10.9369V26.9221C21.5468 27.4724 20.8018 28.3219 20.3806 29.3388C19.9594 30.3557 19.8855 31.4831 20.1704 32.5463C20.4552 33.6095 21.083 34.5489 21.9562 35.219C22.8294 35.889 23.8993 36.2522 25 36.2522C26.1007 36.2522 27.1706 35.889 28.0438 35.219C28.917 34.5489 29.5448 33.6095 29.8296 32.5463C30.1145 31.4831 30.0406 30.3557 29.6194 29.3388C29.1982 28.3219 28.4532 27.4724 27.5 26.9221ZM25 33.7494C24.5055 33.7494 24.0222 33.6028 23.6111 33.3281C23.2 33.0534 22.8795 32.6629 22.6903 32.2061C22.5011 31.7493 22.4516 31.2466 22.548 30.7617C22.6445 30.2767 22.8826 29.8313 23.2322 29.4817C23.5819 29.132 24.0273 28.8939 24.5123 28.7975C24.9972 28.701 25.4999 28.7505 25.9567 28.9397C26.4135 29.1289 26.804 29.4494 27.0787 29.8605C27.3534 30.2716 27.5 30.755 27.5 31.2494C27.5 31.9125 27.2366 32.5483 26.7678 33.0172C26.2989 33.486 25.663 33.7494 25 33.7494Z" fill="#FF5D54"/>
</svg>
