<svg width="40" height="40" viewBox="0 0 40 40" fill="none" xmlns="http://www.w3.org/2000/svg">
<path d="M15 7.49998C15.0005 6.62217 14.7699 5.75971 14.3313 4.9993C13.8928 4.23889 13.2618 3.60733 12.5018 3.16811C11.7418 2.72889 10.8795 2.4975 10.0017 2.49719C9.12394 2.49689 8.26153 2.72768 7.50121 3.16637C6.74089 3.60506 6.10946 4.23618 5.6704 4.99629C5.23134 5.75639 5.00012 6.61869 5 7.4965C4.99988 8.3743 5.23085 9.23666 5.6697 9.99689C6.10855 10.7571 6.7398 11.3884 7.5 11.8273V28.1726C6.54679 28.723 5.80181 29.5725 5.3806 30.5893C4.9594 31.6062 4.8855 32.7337 5.17037 33.7969C5.45525 34.86 6.08297 35.7995 6.95619 36.4695C7.82942 37.1396 8.89933 37.5028 10 37.5028C11.1007 37.5028 12.1706 37.1396 13.0438 36.4695C13.917 35.7995 14.5448 34.86 14.8296 33.7969C15.1145 32.7337 15.0406 31.6062 14.6194 30.5893C14.1982 29.5725 13.4532 28.723 12.5 28.1726V11.8273C13.2597 11.3887 13.8906 10.758 14.3294 9.9984C14.7683 9.23883 14.9995 8.37719 15 7.49998V7.49998ZM10 4.99998C10.4945 4.99998 10.9778 5.1466 11.3889 5.4213C11.8 5.69601 12.1205 6.08645 12.3097 6.54327C12.4989 7.00008 12.5484 7.50275 12.452 7.9877C12.3555 8.47265 12.1174 8.91811 11.7678 9.26774C11.4181 9.61737 10.9727 9.85548 10.4877 9.95194C10.0028 10.0484 9.50011 9.99889 9.04329 9.80967C8.58648 9.62046 8.19603 9.30002 7.92133 8.8889C7.64662 8.47778 7.5 7.99443 7.5 7.49998C7.5 6.83693 7.76339 6.20105 8.23223 5.73221C8.70108 5.26337 9.33696 4.99998 10 4.99998V4.99998ZM10 35C9.50555 35 9.0222 34.8534 8.61108 34.5786C8.19995 34.3039 7.87952 33.9135 7.6903 33.4567C7.50108 32.9999 7.45158 32.4972 7.54804 32.0122C7.6445 31.5273 7.8826 31.0818 8.23223 30.7322C8.58187 30.3826 9.02732 30.1445 9.51228 30.048C9.99723 29.9515 10.4999 30.0011 10.9567 30.1903C11.4135 30.3795 11.804 30.6999 12.0787 31.111C12.3534 31.5222 12.5 32.0055 12.5 32.5C12.5 33.163 12.2366 33.7989 11.7678 34.2677C11.2989 34.7366 10.663 35 10 35Z" fill="#6DC9BA"/>
<path d="M32.5 28.1726V12.1875C32.4979 10.2819 31.74 8.45489 30.3925 7.10742C29.0451 5.75995 27.2181 5.00204 25.3125 4.99997H23.75V2.49997C23.7499 2.25283 23.6765 2.01127 23.5392 1.80581C23.4018 1.60036 23.2066 1.44023 22.9783 1.34567C22.7499 1.25111 22.4987 1.22635 22.2563 1.27454C22.0139 1.32272 21.7912 1.44168 21.6164 1.61638L16.6164 6.61638C16.3822 6.85077 16.2506 7.16859 16.2506 7.49997C16.2506 7.83135 16.3822 8.14917 16.6164 8.38356L21.6164 13.3836C21.7912 13.5583 22.0139 13.6772 22.2563 13.7254C22.4987 13.7736 22.7499 13.7488 22.9783 13.6543C23.2066 13.5597 23.4018 13.3996 23.5392 13.1941C23.6765 12.9887 23.7499 12.7471 23.75 12.5V9.99997H25.3125C25.8927 9.99997 26.4491 10.2304 26.8593 10.6407C27.2695 11.0509 27.5 11.6073 27.5 12.1875V28.1726C26.5468 28.723 25.8018 29.5724 25.3806 30.5893C24.9594 31.6062 24.8855 32.7337 25.1704 33.7968C25.4552 34.86 26.083 35.7995 26.9562 36.4695C27.8294 37.1396 28.8993 37.5027 30 37.5027C31.1007 37.5027 32.1706 37.1396 33.0438 36.4695C33.917 35.7995 34.5448 34.86 34.8296 33.7968C35.1145 32.7337 35.0406 31.6062 34.6194 30.5893C34.1982 29.5724 33.4532 28.723 32.5 28.1726ZM30 35C29.5055 35 29.0222 34.8533 28.6111 34.5786C28.2 34.3039 27.8795 33.9135 27.6903 33.4567C27.5011 32.9999 27.4516 32.4972 27.548 32.0122C27.6445 31.5273 27.8826 31.0818 28.2322 30.7322C28.5819 30.3826 29.0273 30.1445 29.5123 30.048C29.9972 29.9515 30.4999 30.001 30.9567 30.1903C31.4135 30.3795 31.804 30.6999 32.0787 31.111C32.3534 31.5222 32.5 32.0055 32.5 32.5C32.5 33.163 32.2366 33.7989 31.7678 34.2677C31.2989 34.7366 30.663 35 30 35Z" fill="#6DC9BA"/>
</svg>
